<svg id="icon" xmlns="http://www.w3.org/2000/svg" viewBox="0 0 512 512"><defs><style>.cls-1{fill:#0291a4;}.cls-2{fill:#5a5a5a;}</style></defs><path class="cls-1" d="M257.84,156.35,158.25,56.76a31.93,31.93,0,0,0-45.1,0L13.56,156.35a19,19,0,0,0,26.88,26.87L116.7,107V453a19,19,0,0,0,38,0V107L231,183.22a19,19,0,0,0,26.87-26.87Z"/><path class="cls-2" d="M498.44,336.2a19,19,0,0,0-26.87,0L395.3,412.47v-346a19,19,0,0,0-38,0v346L281,336.2a19,19,0,1,0-26.87,26.87l99.59,99.59a31.94,31.94,0,0,0,45.1,0l99.59-99.59A19,19,0,0,0,498.44,336.2Z"/></svg>