<?xml version="1.0" encoding="UTF-8"?>
<svg xmlns="http://www.w3.org/2000/svg" xmlns:xlink="http://www.w3.org/1999/xlink" width="30pt" height="30pt" viewBox="0 0 30 30" version="1.1">
<g id="surface1">
<path style=" stroke:none;fill-rule:nonzero;fill:rgb(0.784314%,56.862745%,64.313725%);fill-opacity:1;" d="M 24.699219 5.300781 C 19.339844 -0.0585938 10.660156 -0.0585938 5.300781 5.300781 C -0.0585938 10.660156 -0.0585938 19.339844 5.300781 24.699219 C 10.660156 30.058594 19.339844 30.058594 24.699219 24.699219 C 30.058594 19.339844 30.058594 10.660156 24.699219 5.300781 Z M 15 26.492188 C 8.664062 26.492188 3.507812 21.335938 3.507812 15 C 3.507812 8.664062 8.664062 3.507812 15 3.507812 C 21.335938 3.507812 26.492188 8.664062 26.492188 15 C 26.492188 21.335938 21.335938 26.492188 15 26.492188 Z M 15 26.492188 "/>
<path style=" stroke:none;fill-rule:nonzero;fill:rgb(0.784314%,56.862745%,64.313725%);fill-opacity:1;" d="M 21.863281 15 C 21.863281 18.792969 18.792969 21.863281 15 21.863281 C 11.207031 21.863281 8.136719 18.792969 8.136719 15 C 8.136719 11.207031 11.207031 8.136719 15 8.136719 C 18.792969 8.136719 21.863281 11.207031 21.863281 15 Z M 21.863281 15 "/>
</g>
</svg>
